# xmcd CD database file
#
# Track frame offsets:
#	150
#	21423
#	38271
#	55494
#	73317
#	94665
#	112863
#	130611
#	149484
#	167082
#	184155
#	208428
#	237051
#	256524
#	270522
#	287145
#	304518
#	322491
#
# Disc length: 4539 seconds
#
# Revision: 0
# Processed by: cddbd v1.5.2PL0 Copyright (c) Steve Scherf et al.
# Submitted via: CDex 1.70beta2
#
DISCID=0911b912
DTITLE=Keith Urban - Greatest Hits
DYEAR=2007
DGENRE=Country
TTITLE0=Better Life
TTITLE1=But For The Grace Of God
TTITLE2=Days Go By
TTITLE3=Everybody
TTITLE4=Got It Right This Time (The Celebration)
TTITLE5=I Told You So
TTITLE6=Making Memories Of Us
TTITLE7=Once In A Lifetime
TTITLE8=Raining On Sunday
TTITLE9=Romeo's Tune
TTITLE10=Somebody Like You
TTITLE11=Stupid Boy
TTITLE12=Tonight I Wanna Cry
TTITLE13=Where The Blacktop Ends
TTITLE14=Who Wouldn't Wanna Be Me
TTITLE15=You'll Think Of Me
TTITLE16=Your Everything
TTITLE17=You're My Better Half
EXTD=YEAR: 2007
EXTT0=
EXTT1=
EXTT2=
EXTT3=
EXTT4=
EXTT5=
EXTT6=
EXTT7=
EXTT8=
EXTT9=
EXTT10=
EXTT11=
EXTT12=
EXTT13=
EXTT14=
EXTT15=
EXTT16=
EXTT17=
PLAYORDER=
